<?xml version="1.0" encoding="utf-8"?>
<!-- Generator: Adobe Illustrator 19.0.0, SVG Export Plug-In . SVG Version: 6.00 Build 0)  -->
<svg version="1.1" id="Layer_1" xmlns="http://www.w3.org/2000/svg" xmlns:xlink="http://www.w3.org/1999/xlink" x="0px" y="0px"
	 width="100px" height="114px" viewBox="0 0 100 114" style="enable-background:new 0 0 100 114;" xml:space="preserve">
<style type="text/css">
	.st0{fill:#FFFFFF;}
</style>
<g id="XMLID_98_">
	<path id="XMLID_103_" class="st0" d="M55.5,49.8c0-4.1-3.3-7.3-7.3-7.3s-7.3,3.3-7.3,7.3s3.3,7.3,7.3,7.3S55.5,53.9,55.5,49.8z
		 M48.2,53.9c-2.8,0-5.1-2.3-5.1-5.1s2.3-5.1,5.1-5.1s5.1,2.3,5.1,5.1S51,53.9,48.2,53.9z"/>
	<path id="XMLID_99_" class="st0" d="M37.3,63.2c1,1.4,2.1,2.6,3.2,3.9c3.1,3.9,7.9,12.7,7.9,12.7s5-8.9,8.1-12.7
		c1.1-1.3,2.2-2.6,3.2-3.9c4.8-6.4,6.8-13.4,4-21.2c-1.4-4-4-7.3-6.9-10.4c-2.3-2.4-3.3-3.1-6.6-6.4c2.5-2.8,4.4-5.7,4.5-11.7
		C54.8,7.2,49.3,1,48.1,0H48v0v0v0c0,1.2-6.2,7.2-6.1,13.5c0.1,6,2.3,8.9,4.8,11.7c-3.3,3.3-4.3,4-6.5,6.4
		c-2.9,3.1-5.5,6.4-6.9,10.4C30.5,49.8,32.5,56.8,37.3,63.2z M44.8,13.4c-0.1-3.4,2-6.8,3.7-9.1c1.7,2.3,3.8,5.8,3.7,9.2
		c-0.1,4.8-1.6,7.5-3.6,9.5h-0.2C46.4,21,44.9,18.2,44.8,13.4z M48.5,27.7c1.9,1.9,13.6,10.9,13.3,21.1C61.5,60.6,54.6,62.3,48.5,74
		c-6.1-11.8-12.9-13.5-13.3-25.2C35,38.7,46.6,29.7,48.5,27.7z"/>
</g>
<g id="XMLID_143_">
	<path id="XMLID_144_" class="st0" d="M4.9,93.3c0,2.1,0,3.3,0.3,3.6c0.3,0.2,0.7,0.4,2,0.4c0.9,0,1.5,0,1.9-0.5
		c0.2-0.2,0.4-0.7,0.4-1c0-0.1,0-0.2,0.2-0.2c0.1,0,0.1,0.1,0.1,0.3c0,0.2-0.1,1.4-0.2,1.9c-0.1,0.4-0.2,0.4-1,0.4
		c-1.2,0-2.1,0-2.8,0c-0.7,0-1.3,0-2,0c-0.2,0-0.5,0-0.9,0c-0.4,0-0.8,0-1.1,0c-0.2,0-0.3,0-0.3-0.2c0-0.1,0.1-0.1,0.3-0.1
		c0.2,0,0.4,0,0.6-0.1c0.3-0.1,0.4-0.4,0.5-0.9c0.1-0.7,0.1-2,0.1-3.5v-2.9c0-2.5,0-3,0-3.5c0-0.6-0.2-0.8-0.7-0.9
		c-0.1,0-0.3,0-0.5,0c-0.2,0-0.3,0-0.3-0.1c0-0.1,0.1-0.1,0.4-0.1c0.8,0,1.8,0,2.3,0c0.4,0,1.6,0,2.3,0c0.2,0,0.3,0,0.3,0.1
		c0,0.1-0.1,0.1-0.3,0.1c-0.2,0-0.4,0-0.6,0C5.1,86,5,86.3,4.9,86.9c0,0.5,0,1,0,3.5V93.3z"/>
	<path id="XMLID_146_" class="st0" d="M15.3,94.5c-0.1,0-0.1,0-0.1,0.1l-0.8,1.9c-0.1,0.3-0.2,0.7-0.2,0.9c0,0.2,0.1,0.4,0.6,0.4H15
		c0.2,0,0.2,0.1,0.2,0.1c0,0.1-0.1,0.1-0.2,0.1c-0.5,0-1.2,0-1.6,0c-0.1,0-0.9,0-1.7,0c-0.2,0-0.3,0-0.3-0.1c0-0.1,0-0.1,0.2-0.1
		c0.1,0,0.3,0,0.4,0c0.7-0.1,0.9-0.5,1.2-1.2l3.8-8.9c0.2-0.4,0.3-0.6,0.4-0.6c0.2,0,0.3,0.1,0.4,0.4c0.3,0.8,2.8,6.5,3.7,8.7
		c0.6,1.3,1,1.5,1.2,1.5c0.2,0,0.4,0,0.5,0c0.1,0,0.2,0,0.2,0.1c0,0.1-0.1,0.1-0.6,0.1c-0.5,0-1.6,0-2.8,0c-0.3,0-0.4,0-0.4-0.1
		c0-0.1,0-0.1,0.2-0.1c0.1,0,0.2-0.1,0.1-0.3l-1.1-2.8c0-0.1-0.1-0.1-0.1-0.1H15.3z M18.4,93.8C18.5,93.8,18.5,93.7,18.4,93.8
		l-1.3-3.7c0,0,0-0.1-0.1-0.1c0,0-0.1,0.1-0.1,0.1l-1.4,3.6c0,0.1,0,0.1,0,0.1H18.4z"/>
	<path id="XMLID_149_" class="st0" d="M26.2,91.5c0-2.1,0-2.5,0-3c0-0.5-0.2-0.6-0.6-0.8c-0.1,0-0.4,0-0.6,0c-0.2,0-0.2,0-0.2-0.1
		c0-0.1,0.1-0.1,0.3-0.1c0.8,0,1.8,0,2.2,0c0.4,0,1.3,0,1.9,0c0.2,0,0.3,0,0.3,0.1c0,0.1-0.1,0.1-0.2,0.1c-0.2,0-0.2,0-0.4,0
		c-0.4,0.1-0.5,0.3-0.5,0.8c0,0.4,0,0.8,0,3v2c0,2.1,0.4,2.8,1.1,3.4c0.6,0.5,1.3,0.6,1.8,0.6c0.6,0,1.4-0.2,2-0.7
		c0.8-0.8,0.8-2,0.8-3.4v-1.8c0-2.1,0-2.5,0-3c0-0.5-0.1-0.6-0.6-0.8c-0.1,0-0.4,0-0.5,0c-0.2,0-0.2,0-0.2-0.1
		c0-0.1,0.1-0.1,0.3-0.1c0.7,0,1.7,0,1.7,0c0.2,0,1.1,0,1.7,0c0.2,0,0.3,0,0.3,0.1c0,0.1-0.1,0.1-0.2,0.1c-0.2,0-0.2,0-0.4,0
		c-0.4,0.1-0.5,0.3-0.5,0.8c0,0.4,0,0.8,0,3V93c0,1.6-0.2,3.2-1.4,4.2c-1,0.9-2.1,1-3.1,1c-0.8,0-2.3,0-3.3-1
		c-0.7-0.6-1.3-1.7-1.3-3.7V91.5z"/>
	<path id="XMLID_151_" class="st0" d="M40.9,91.5c0-2.1,0-2.5,0-3c0-0.5-0.2-0.6-0.6-0.8c-0.1,0-0.4,0-0.6,0c-0.1,0-0.2,0-0.2-0.1
		c0-0.1,0.1-0.1,0.3-0.1c0.8,0,1.7,0,2,0c0.5,0,1.8,0,2.3,0c0.9,0,2,0.1,2.8,0.6c0.4,0.3,1,1,1,1.9c0,1-0.6,2-2,3.1
		c1.3,1.6,2.3,2.9,3.2,3.7c0.8,0.8,1.3,0.9,1.6,0.9c0.1,0,0.2,0,0.3,0s0.2,0.1,0.2,0.1c0,0.1-0.1,0.1-0.3,0.1h-1.4
		c-0.8,0-1.2-0.1-1.6-0.3c-0.6-0.3-1.2-1-2-2.1c-0.6-0.8-1.2-1.7-1.4-1.9c-0.1-0.1-0.2-0.1-0.3-0.1l-1.3,0c-0.1,0-0.1,0-0.1,0.1V94
		c0,1.3,0,2.4,0.1,3c0,0.4,0.1,0.7,0.6,0.7c0.2,0,0.5,0,0.7,0c0.1,0,0.2,0.1,0.2,0.1c0,0.1-0.1,0.1-0.3,0.1c-0.8,0-2.1,0-2.3,0
		c-0.3,0-1.2,0-1.8,0c-0.2,0-0.3,0-0.3-0.1c0-0.1,0-0.1,0.2-0.1c0.2,0,0.4,0,0.5,0c0.3-0.1,0.4-0.3,0.4-0.7c0.1-0.6,0.1-1.7,0.1-3
		V91.5z M42.8,92.6c0,0.1,0,0.2,0.1,0.2C43.2,93,43.7,93,44,93c0.6,0,0.8,0,1-0.2c0.4-0.3,0.9-0.9,0.9-2.1c0-2-1.4-2.5-2.2-2.5
		c-0.4,0-0.7,0-0.9,0c-0.1,0-0.1,0.1-0.1,0.2V92.6z"/>
	<path id="XMLID_154_" class="st0" d="M54.1,91.5c0-2.1,0-2.5,0-3c0-0.5-0.2-0.6-0.6-0.8c-0.1,0-0.4,0-0.6,0c-0.1,0-0.2,0-0.2-0.1
		c0-0.1,0.1-0.1,0.3-0.1c0.8,0,1.7,0,2.1,0c0.5,0,3.7,0,4,0c0.3,0,0.5-0.1,0.6-0.1c0.1,0,0.2-0.1,0.2-0.1c0.1,0,0.1,0.1,0.1,0.1
		c0,0.1-0.1,0.3-0.1,0.9c0,0.1,0,0.8-0.1,0.9c0,0.1,0,0.2-0.2,0.2c-0.1,0-0.1-0.1-0.1-0.2c0-0.1,0-0.3-0.1-0.5
		c-0.1-0.2-0.2-0.4-1-0.5c-0.2,0-2-0.1-2.3-0.1c-0.1,0-0.1,0-0.1,0.1v3.5c0,0.1,0,0.1,0.1,0.1c0.3,0,2.2,0,2.5,0
		c0.3,0,0.6-0.1,0.7-0.2c0.1-0.1,0.2-0.2,0.2-0.2c0.1,0,0.1,0.1,0.1,0.1c0,0.1,0,0.3-0.1,1c0,0.3-0.1,0.8-0.1,0.9
		c0,0.1,0,0.3-0.1,0.3c-0.1,0-0.1,0-0.1-0.1c0-0.1,0-0.3,0-0.5c-0.1-0.3-0.3-0.5-0.8-0.5c-0.3,0-1.9-0.1-2.3-0.1
		c-0.1,0-0.1,0.1-0.1,0.1v1.1c0,0.5,0,1.7,0,2.1c0,1,0.5,1.2,2,1.2c0.4,0,1,0,1.4-0.2c0.4-0.2,0.5-0.5,0.6-1c0-0.1,0.1-0.2,0.2-0.2
		c0.1,0,0.1,0.2,0.1,0.3c0,0.3-0.1,1.3-0.2,1.6c-0.1,0.4-0.2,0.4-0.8,0.4c-1.1,0-2,0-2.7,0c-0.7,0-1.3,0-1.7,0c-0.2,0-0.5,0-0.8,0
		c-0.3,0-0.7,0-1,0c-0.2,0-0.3,0-0.3-0.1c0-0.1,0-0.1,0.2-0.1c0.2,0,0.4,0,0.5,0c0.3-0.1,0.4-0.3,0.4-0.7c0.1-0.6,0.1-1.7,0.1-3
		V91.5z"/>
	<path id="XMLID_156_" class="st0" d="M67.1,94c0,1.8,0,2.7,0.3,3c0.2,0.2,0.8,0.3,1.9,0.3c0.8,0,1.3,0,1.7-0.4
		c0.2-0.2,0.3-0.6,0.4-0.8c0-0.1,0-0.2,0.2-0.2c0.1,0,0.1,0.1,0.1,0.3c0,0.2-0.1,1.2-0.2,1.6c-0.1,0.3-0.2,0.4-0.9,0.4
		c-1,0-1.9,0-2.6,0c-0.7,0-1.3,0-1.9,0c-0.2,0-0.5,0-0.8,0c-0.3,0-0.7,0-1,0c-0.2,0-0.3,0-0.3-0.1c0-0.1,0-0.1,0.2-0.1
		c0.2,0,0.4,0,0.5,0c0.3-0.1,0.4-0.3,0.4-0.7c0.1-0.6,0.1-1.7,0.1-3v-2.5c0-2.1,0-2.5,0-3c0-0.5-0.2-0.6-0.6-0.8c-0.1,0-0.3,0-0.5,0
		c-0.2,0-0.2,0-0.2-0.1c0-0.1,0.1-0.1,0.3-0.1c0.7,0,1.6,0,2,0c0.3,0,1.5,0,2.1,0c0.2,0,0.3,0,0.3,0.1c0,0.1-0.1,0.1-0.3,0.1
		c-0.2,0-0.4,0-0.6,0c-0.4,0.1-0.5,0.3-0.5,0.8c0,0.4,0,0.8,0,3V94z"/>
	<path id="XMLID_158_" class="st0" d="M76.1,91.5c0-2.1,0-2.5,0-3c0-0.5-0.2-0.6-0.5-0.7c-0.2,0-0.3-0.1-0.5-0.1
		c-0.1,0-0.2,0-0.2-0.2c0-0.1,0.1-0.1,0.3-0.1c0.5,0,1.5,0,2,0c0.4,0,1.3,0,1.9,0c0.2,0,0.3,0,0.3,0.1c0,0.1-0.1,0.2-0.2,0.2
		c-0.1,0-0.3,0-0.4,0c-0.4,0.1-0.5,0.3-0.5,0.8c0,0.4,0,0.8,0,3V94c0,1.4,0,2.5,0.1,3.1c0,0.4,0.1,0.6,0.6,0.7c0.2,0,0.5,0,0.7,0
		c0.2,0,0.2,0.1,0.2,0.1c0,0.1-0.1,0.1-0.3,0.1c-1,0-2,0-2.4,0c-0.3,0-1.3,0-1.9,0c-0.2,0-0.3,0-0.3-0.1c0-0.1,0-0.1,0.2-0.1
		c0.2,0,0.4,0,0.5,0c0.3-0.1,0.4-0.3,0.4-0.7c0.1-0.6,0.1-1.7,0.1-3.1V91.5z"/>
	<path id="XMLID_160_" class="st0" d="M85.9,95.8c0,1.3,0.2,1.7,0.6,1.8c0.3,0.1,0.6,0.1,0.9,0.1c0.2,0,0.3,0,0.3,0.1
		c0,0.1-0.1,0.2-0.4,0.2c-1.1,0-1.7,0-2.1,0c-0.1,0-0.9,0-1.8,0c-0.2,0-0.4,0-0.4-0.2c0-0.1,0.1-0.1,0.3-0.1c0.2,0,0.5,0,0.7-0.1
		c0.4-0.1,0.5-0.6,0.5-2.1l0.1-9.8c0-0.3,0-0.6,0.2-0.6c0.2,0,0.3,0.2,0.6,0.5c0.2,0.2,2.7,2.9,5.1,5.3c1.1,1.1,3.4,3.5,3.6,3.8h0.1
		l-0.2-7.4c0-1-0.2-1.3-0.6-1.5c-0.2-0.1-0.6-0.1-0.9-0.1c-0.2,0-0.3,0-0.3-0.1c0-0.1,0.2-0.1,0.4-0.1c0.9,0,1.7,0,2,0
		c0.2,0,0.8,0,1.6,0c0.2,0,0.4,0,0.4,0.1c0,0.1-0.1,0.1-0.3,0.1c-0.2,0-0.3,0-0.5,0c-0.5,0.1-0.6,0.5-0.6,1.4l-0.2,10.4
		c0,0.4-0.1,0.5-0.2,0.5c-0.2,0-0.4-0.2-0.6-0.4c-1-1-3.2-3.2-4.9-4.9c-1.8-1.8-3.6-3.9-3.9-4.2h0L85.9,95.8z"/>
</g>
<g id="XMLID_128_">
	<path id="XMLID_129_" class="st0" d="M26.3,109.2c0,1.2,0,2.2,0.1,2.7c0,0.4,0.1,0.6,0.5,0.7c0.2,0,0.4,0.1,0.5,0.1
		c0.1,0,0.1,0.1,0.1,0.1c0,0.1-0.1,0.1-0.2,0.1c-0.7,0-1.4,0-1.5,0c-0.1,0-0.9,0-1.2,0c-0.1,0-0.2,0-0.2-0.1c0,0,0-0.1,0.1-0.1
		c0.1,0,0.2,0,0.4-0.1c0.2-0.1,0.3-0.3,0.4-0.7c0.1-0.5,0.1-1.5,0.1-2.7V104l-1.7,0c-0.7,0-1,0.1-1.2,0.4c-0.1,0.2-0.1,0.3-0.2,0.4
		c0,0.1-0.1,0.1-0.1,0.1c0,0-0.1,0-0.1-0.1c0-0.1,0.2-1.2,0.3-1.3c0-0.1,0.1-0.2,0.1-0.2c0.1,0,0.2,0.1,0.5,0.1
		c0.3,0,0.8,0.1,0.9,0.1h4.5c0.4,0,0.7,0,0.9-0.1c0.2,0,0.3-0.1,0.3-0.1c0.1,0,0.1,0.1,0.1,0.1c0,0.4,0,1.3,0,1.4
		c0,0.1-0.1,0.2-0.1,0.2s-0.1,0-0.1-0.2l0-0.1c0-0.4-0.3-0.7-1.4-0.7l-1.5,0V109.2z"/>
	<path id="XMLID_131_" class="st0" d="M33,107c0-1.9,0-2.3,0-2.7c0-0.4-0.1-0.6-0.5-0.7c-0.1,0-0.3,0-0.4,0c0,0-0.1-0.1-0.1-0.1
		c0-0.1,0.1-0.1,0.2-0.1c0.5,0,1.3,0,1.4,0c0.1,0,1.1,0,1.5,0c0.8,0,1.6,0.1,2.2,0.5c0.3,0.2,0.8,0.8,0.8,1.7c0,0.9-0.4,1.8-1.5,2.8
		c1,1.3,1.8,2.4,2.5,3.2c0.6,0.7,1,0.8,1.3,0.9c0.2,0,0.4,0,0.4,0s0.1,0.1,0.1,0.1c0,0.1-0.1,0.1-0.3,0.1H40c-0.7,0-1-0.1-1.3-0.2
		c-0.5-0.3-1-0.9-1.6-1.8c-0.5-0.7-1-1.5-1.3-1.8c-0.1-0.1-0.1-0.1-0.2-0.1l-1.5,0c-0.1,0-0.1,0-0.1,0.1v0.3c0,1.2,0,2.2,0.1,2.7
		c0,0.4,0.1,0.6,0.5,0.7c0.2,0,0.4,0.1,0.5,0.1c0.1,0,0.1,0.1,0.1,0.1c0,0.1-0.1,0.1-0.2,0.1c-0.7,0-1.4,0-1.5,0c0,0-0.8,0-1.2,0
		c-0.1,0-0.2,0-0.2-0.1c0,0,0-0.1,0.1-0.1c0.1,0,0.3,0,0.4-0.1c0.2-0.1,0.3-0.3,0.3-0.7c0.1-0.5,0.1-1.5,0.1-2.7V107z M34,108.1
		c0,0.1,0,0.1,0.1,0.2c0.2,0.1,0.8,0.2,1.3,0.2c0.3,0,0.6,0,0.9-0.2c0.4-0.3,0.7-1,0.7-1.9c0-1.5-0.8-2.4-2.1-2.4
		c-0.4,0-0.7,0-0.9,0.1c-0.1,0-0.1,0.1-0.1,0.1V108.1z"/>
	<path id="XMLID_134_" class="st0" d="M44.9,103.7c0.1-0.4,0.2-0.5,0.3-0.5c0.1,0,0.2,0.2,0.3,0.5c0.2,0.5,2.1,5.7,2.9,7.5
		c0.4,1.1,0.8,1.3,1,1.4c0.2,0.1,0.4,0.1,0.5,0.1c0.1,0,0.1,0,0.1,0.1c0,0.1-0.1,0.1-0.3,0.1c-0.2,0-1.1,0-1.9,0
		c-0.2,0-0.4,0-0.4-0.1c0-0.1,0-0.1,0.1-0.1c0.1,0,0.2-0.1,0.1-0.3l-1.1-2.8c0-0.1,0-0.1-0.1-0.1h-2.8c-0.1,0-0.1,0-0.1,0.1l-0.7,2
		c-0.1,0.3-0.2,0.6-0.2,0.8c0,0.2,0.2,0.3,0.4,0.3h0.1c0.1,0,0.1,0,0.1,0.1c0,0.1-0.1,0.1-0.2,0.1c-0.3,0-0.9,0-1.1,0
		c-0.1,0-0.7,0-1.2,0c-0.1,0-0.2,0-0.2-0.1c0-0.1,0.1-0.1,0.1-0.1c0.1,0,0.3,0,0.4,0c0.5-0.1,0.8-0.5,1-1.1L44.9,103.7z M46.3,108.9
		C46.3,108.9,46.3,108.8,46.3,108.9l-1.1-3.5c-0.1-0.2-0.1-0.2-0.2,0l-1.1,3.4c0,0.1,0,0.1,0,0.1H46.3z"/>
	<path id="XMLID_137_" class="st0" d="M54.2,111.2c0.7-1.7,2.3-5.9,2.5-6.8c0.1-0.2,0.1-0.4,0.1-0.5s0-0.2-0.2-0.3
		c-0.1,0-0.3,0-0.4,0c-0.1,0-0.1,0-0.1-0.1c0-0.1,0.1-0.1,0.3-0.1c0.5,0,1,0,1.2,0c0.1,0,0.6,0,0.9,0c0.1,0,0.2,0,0.2,0.1
		s0,0.1-0.1,0.1c-0.1,0-0.4,0-0.6,0.1c-0.2,0.1-0.4,0.3-0.7,1.1c-0.1,0.4-0.7,1.8-1.3,3.4c-0.7,1.8-1.3,3.2-1.5,3.8
		c-0.3,0.7-0.4,0.9-0.5,0.9c-0.1,0-0.2-0.2-0.4-0.8l-2.9-7.6c-0.3-0.7-0.4-0.8-0.8-0.9c-0.2,0-0.4,0-0.5,0c-0.1,0-0.1-0.1-0.1-0.1
		c0-0.1,0.1-0.1,0.3-0.1c0.6,0,1.2,0,1.4,0c0.1,0,0.7,0,1.1,0c0.2,0,0.3,0,0.3,0.1s0,0.1-0.1,0.1c-0.1,0-0.3,0-0.4,0.1
		c-0.1,0.1-0.1,0.1-0.1,0.2c0,0.2,0.1,0.5,0.3,1L54.2,111.2z"/>
	<path id="XMLID_139_" class="st0" d="M61.4,107c0-1.9,0-2.3,0-2.7c0-0.4-0.1-0.6-0.5-0.7c-0.1,0-0.3,0-0.4,0c0,0-0.1-0.1-0.1-0.1
		c0-0.1,0.1-0.1,0.2-0.1c0.5,0,1.3,0,1.4,0c0.1,0,2.6,0,2.9,0c0.2,0,0.4-0.1,0.5-0.1c0.1,0,0.1-0.1,0.2-0.1c0,0,0.1,0.1,0.1,0.1
		c0,0.1-0.1,0.2-0.1,0.6c0,0.1,0,0.7-0.1,0.8c0,0.1-0.1,0.1-0.1,0.1c-0.1,0-0.1-0.1-0.1-0.2c0-0.1,0-0.3-0.1-0.4
		c-0.1-0.2-0.2-0.3-0.9-0.4c-0.2,0-1.6,0-1.7,0c-0.1,0-0.1,0-0.1,0.1v3.4c0,0.1,0,0.1,0.1,0.1c0.1,0,1.7,0,2,0c0.3,0,0.5,0,0.6-0.2
		c0.1-0.1,0.1-0.2,0.2-0.2s0.1,0,0.1,0.1c0,0.1-0.1,0.3-0.1,0.7c0,0.2-0.1,0.7-0.1,0.8c0,0.1,0,0.2-0.1,0.2c-0.1,0-0.1,0-0.1-0.1
		c0-0.1,0-0.2-0.1-0.4c0-0.2-0.1-0.3-0.6-0.4c-0.3,0-1.6-0.1-1.8-0.1c-0.1,0-0.1,0-0.1,0.1v1c0,0.4,0,1.9,0,2.1c0,0.8,0.2,1,1.4,1
		c0.3,0,0.9,0,1.2-0.1c0.3-0.1,0.5-0.4,0.5-0.9c0-0.1,0.1-0.2,0.1-0.2c0.1,0,0.1,0.1,0.1,0.2c0,0.1-0.1,0.9-0.2,1.2
		c-0.1,0.3-0.2,0.3-0.7,0.3c-0.9,0-1.6,0-2.1,0c-0.5,0-0.8,0-1,0c0,0-0.3,0-0.5,0c-0.2,0-0.5,0-0.7,0c-0.1,0-0.2,0-0.2-0.1
		c0,0,0-0.1,0.1-0.1c0.1,0,0.3,0,0.4-0.1c0.2,0,0.3-0.3,0.3-0.7c0.1-0.5,0.1-1.5,0.1-2.7V107z"/>
	<path id="XMLID_141_" class="st0" d="M70.9,109.3c0,1.8,0,2.6,0.2,2.8c0.2,0.2,0.7,0.3,1.6,0.3c0.6,0,1.2,0,1.4-0.4
		c0.1-0.2,0.2-0.5,0.3-0.7c0-0.1,0.1-0.2,0.1-0.2c0.1,0,0.1,0.1,0.1,0.2c0,0.1-0.1,0.9-0.2,1.2c-0.1,0.3-0.1,0.3-0.8,0.3
		c-0.9,0-1.5,0-2.1,0c-0.5,0-1,0-1.3,0c-0.1,0-0.3,0-0.5,0c-0.2,0-0.5,0-0.7,0c-0.1,0-0.2,0-0.2-0.1c0,0,0-0.1,0.1-0.1
		c0.1,0,0.3,0,0.4-0.1c0.2-0.1,0.3-0.3,0.3-0.7c0.1-0.5,0.1-1.5,0.1-2.7V107c0-1.9,0-2.3,0-2.7c0-0.4-0.1-0.6-0.5-0.7
		c-0.1,0-0.3,0-0.4,0c0,0-0.1-0.1-0.1-0.1c0-0.1,0.1-0.1,0.2-0.1c0.5,0,1.3,0,1.4,0c0.1,0,1,0,1.3,0c0.1,0,0.2,0,0.2,0.1
		c0,0-0.1,0.1-0.1,0.1c-0.1,0-0.3,0-0.4,0c-0.4,0.1-0.4,0.3-0.4,0.7c0,0.4,0,0.7,0,2.7V109.3z"/>
</g>
</svg>
